<mxfile host="app.diagrams.net" modified="2024-06-16T11:35:58.524Z" agent="Mozilla/5.0 (Windows NT 10.0; Win64; x64) AppleWebKit/537.36 (KHTML, like Gecko) Chrome/126.0.0.0 Safari/537.36" etag="C5AVcEmUrOsiyXT97fiR" version="24.5.4" type="google">
  <diagram name="Page-1" id="sIMYtno1FmORio6CqLPa">
    <mxGraphModel grid="1" page="1" gridSize="10" guides="1" tooltips="1" connect="1" arrows="1" fold="1" pageScale="1" pageWidth="827" pageHeight="1169" math="0" shadow="0">
      <root>
        <mxCell id="0" />
        <mxCell id="1" parent="0" />
        <mxCell id="Mtp3X7L3HIerDT1P-2zb-1" value="" style="verticalLabelPosition=bottom;verticalAlign=top;html=1;shape=mxgraph.basic.rect;fillColor2=none;strokeWidth=1;size=20;indent=5;labelBackgroundColor=none;rounded=1;" vertex="1" parent="1">
          <mxGeometry x="130" y="20" width="800" height="860" as="geometry" />
        </mxCell>
        <object label="User" User="" id="Mtp3X7L3HIerDT1P-2zb-2">
          <mxCell style="shape=umlActor;verticalLabelPosition=bottom;verticalAlign=top;html=1;labelBackgroundColor=none;rounded=1;align=center;" vertex="1" parent="1">
            <mxGeometry x="40" y="405" width="40" height="90" as="geometry" />
          </mxCell>
        </object>
        <mxCell id="Mtp3X7L3HIerDT1P-2zb-3" value="System" style="shape=umlActor;verticalLabelPosition=bottom;verticalAlign=top;html=1;labelBackgroundColor=none;rounded=1;" vertex="1" parent="1">
          <mxGeometry x="1080" y="385" width="40" height="90" as="geometry" />
        </mxCell>
        <mxCell id="Mtp3X7L3HIerDT1P-2zb-9" value="Start App" style="ellipse;whiteSpace=wrap;html=1;rounded=1;" vertex="1" parent="1">
          <mxGeometry x="160" y="330" width="80" height="40" as="geometry" />
        </mxCell>
        <mxCell id="4KrqfMs0hCerzIHVJyh5-1" value="include" style="endArrow=open;endSize=12;dashed=1;html=1;rounded=1;exitX=1;exitY=0.5;exitDx=0;exitDy=0;entryX=0;entryY=0.5;entryDx=0;entryDy=0;" edge="1" parent="1" source="Mtp3X7L3HIerDT1P-2zb-9" target="4KrqfMs0hCerzIHVJyh5-3">
          <mxGeometry width="160" relative="1" as="geometry">
            <mxPoint x="370" y="430" as="sourcePoint" />
            <mxPoint x="530" y="430" as="targetPoint" />
          </mxGeometry>
        </mxCell>
        <mxCell id="4KrqfMs0hCerzIHVJyh5-2" value="Login" style="ellipse;whiteSpace=wrap;html=1;rounded=1;" vertex="1" parent="1">
          <mxGeometry x="300" y="220" width="80" height="40" as="geometry" />
        </mxCell>
        <mxCell id="4KrqfMs0hCerzIHVJyh5-3" value="Sign Up" style="ellipse;whiteSpace=wrap;html=1;rounded=1;" vertex="1" parent="1">
          <mxGeometry x="280" y="140" width="80" height="40" as="geometry" />
        </mxCell>
        <mxCell id="4KrqfMs0hCerzIHVJyh5-4" value="List characters" style="ellipse;whiteSpace=wrap;html=1;rounded=1;" vertex="1" parent="1">
          <mxGeometry x="440" y="140" width="90" height="40" as="geometry" />
        </mxCell>
        <mxCell id="4KrqfMs0hCerzIHVJyh5-5" value="include" style="endArrow=open;endSize=12;dashed=1;html=1;rounded=1;entryX=0;entryY=0.5;entryDx=0;entryDy=0;exitX=1;exitY=0.5;exitDx=0;exitDy=0;" edge="1" parent="1" source="4KrqfMs0hCerzIHVJyh5-3" target="4KrqfMs0hCerzIHVJyh5-4">
          <mxGeometry width="160" relative="1" as="geometry">
            <mxPoint x="250" y="360" as="sourcePoint" />
            <mxPoint x="290" y="170" as="targetPoint" />
          </mxGeometry>
        </mxCell>
        <mxCell id="4KrqfMs0hCerzIHVJyh5-6" value="Insert to database" style="ellipse;whiteSpace=wrap;html=1;rounded=1;" vertex="1" parent="1">
          <mxGeometry x="750" y="140" width="90" height="40" as="geometry" />
        </mxCell>
        <mxCell id="4KrqfMs0hCerzIHVJyh5-8" value="include" style="endArrow=open;endSize=12;dashed=1;html=1;rounded=1;entryX=0;entryY=0.5;entryDx=0;entryDy=0;exitX=1;exitY=0.5;exitDx=0;exitDy=0;" edge="1" parent="1" source="4KrqfMs0hCerzIHVJyh5-4" target="4KrqfMs0hCerzIHVJyh5-6">
          <mxGeometry width="160" relative="1" as="geometry">
            <mxPoint x="370" y="170" as="sourcePoint" />
            <mxPoint x="424" y="170" as="targetPoint" />
          </mxGeometry>
        </mxCell>
        <mxCell id="4KrqfMs0hCerzIHVJyh5-9" value="include" style="endArrow=open;endSize=12;dashed=1;html=1;rounded=1;exitX=1;exitY=0.5;exitDx=0;exitDy=0;entryX=0;entryY=0.5;entryDx=0;entryDy=0;" edge="1" parent="1" source="Mtp3X7L3HIerDT1P-2zb-9" target="4KrqfMs0hCerzIHVJyh5-2">
          <mxGeometry width="160" relative="1" as="geometry">
            <mxPoint x="250" y="360" as="sourcePoint" />
            <mxPoint x="290" y="170" as="targetPoint" />
          </mxGeometry>
        </mxCell>
        <mxCell id="4KrqfMs0hCerzIHVJyh5-10" value="Check from database" style="ellipse;whiteSpace=wrap;html=1;rounded=1;" vertex="1" parent="1">
          <mxGeometry x="737" y="220" width="90" height="40" as="geometry" />
        </mxCell>
        <mxCell id="4KrqfMs0hCerzIHVJyh5-11" value="include" style="endArrow=open;endSize=12;dashed=1;html=1;rounded=1;exitX=1;exitY=0.5;exitDx=0;exitDy=0;" edge="1" parent="1" source="4KrqfMs0hCerzIHVJyh5-2" target="4KrqfMs0hCerzIHVJyh5-10">
          <mxGeometry width="160" relative="1" as="geometry">
            <mxPoint x="540" y="170" as="sourcePoint" />
            <mxPoint x="760" y="170" as="targetPoint" />
          </mxGeometry>
        </mxCell>
        <mxCell id="4KrqfMs0hCerzIHVJyh5-12" value="Login success" style="ellipse;whiteSpace=wrap;html=1;rounded=1;" vertex="1" parent="1">
          <mxGeometry x="680" y="295" width="90" height="40" as="geometry" />
        </mxCell>
        <mxCell id="4KrqfMs0hCerzIHVJyh5-13" value="Homepage" style="ellipse;whiteSpace=wrap;html=1;rounded=1;" vertex="1" parent="1">
          <mxGeometry x="290" y="340" width="80" height="40" as="geometry" />
        </mxCell>
        <mxCell id="4KrqfMs0hCerzIHVJyh5-14" value="Login failed" style="ellipse;whiteSpace=wrap;html=1;rounded=1;" vertex="1" parent="1">
          <mxGeometry x="780" y="295" width="90" height="40" as="geometry" />
        </mxCell>
        <mxCell id="4KrqfMs0hCerzIHVJyh5-15" value="extend" style="endArrow=open;endSize=12;dashed=1;html=1;rounded=1;exitX=0.417;exitY=1.025;exitDx=0;exitDy=0;exitPerimeter=0;entryX=0.5;entryY=0;entryDx=0;entryDy=0;" edge="1" parent="1" source="4KrqfMs0hCerzIHVJyh5-10" target="4KrqfMs0hCerzIHVJyh5-12">
          <mxGeometry width="160" relative="1" as="geometry">
            <mxPoint x="390" y="250" as="sourcePoint" />
            <mxPoint x="747" y="250" as="targetPoint" />
          </mxGeometry>
        </mxCell>
        <mxCell id="4KrqfMs0hCerzIHVJyh5-17" value="extend" style="endArrow=open;endSize=12;dashed=1;html=1;rounded=1;entryX=0.6;entryY=0.063;entryDx=0;entryDy=0;entryPerimeter=0;" edge="1" parent="1" source="4KrqfMs0hCerzIHVJyh5-10" target="4KrqfMs0hCerzIHVJyh5-14">
          <mxGeometry width="160" relative="1" as="geometry">
            <mxPoint x="785" y="271" as="sourcePoint" />
            <mxPoint x="625" y="280" as="targetPoint" />
          </mxGeometry>
        </mxCell>
        <mxCell id="4KrqfMs0hCerzIHVJyh5-18" value="include" style="endArrow=open;endSize=12;dashed=1;html=1;rounded=1;exitX=0.356;exitY=0.988;exitDx=0;exitDy=0;exitPerimeter=0;entryX=1;entryY=0;entryDx=0;entryDy=0;" edge="1" parent="1" source="4KrqfMs0hCerzIHVJyh5-6" target="4KrqfMs0hCerzIHVJyh5-13">
          <mxGeometry width="160" relative="1" as="geometry">
            <mxPoint x="390" y="250" as="sourcePoint" />
            <mxPoint x="747" y="250" as="targetPoint" />
          </mxGeometry>
        </mxCell>
        <mxCell id="4KrqfMs0hCerzIHVJyh5-19" value="include" style="endArrow=open;endSize=12;dashed=1;html=1;rounded=1;exitX=0;exitY=0.5;exitDx=0;exitDy=0;entryX=1;entryY=0;entryDx=0;entryDy=0;" edge="1" parent="1" source="4KrqfMs0hCerzIHVJyh5-12">
          <mxGeometry width="160" relative="1" as="geometry">
            <mxPoint x="792" y="190" as="sourcePoint" />
            <mxPoint x="368" y="356" as="targetPoint" />
          </mxGeometry>
        </mxCell>
        <mxCell id="4KrqfMs0hCerzIHVJyh5-20" value="Team generator" style="ellipse;whiteSpace=wrap;html=1;rounded=1;" vertex="1" parent="1">
          <mxGeometry x="300" y="405" width="80" height="40" as="geometry" />
        </mxCell>
        <mxCell id="4KrqfMs0hCerzIHVJyh5-21" value="Enemies only" style="ellipse;whiteSpace=wrap;html=1;rounded=1;" vertex="1" parent="1">
          <mxGeometry x="440" y="380" width="80" height="40" as="geometry" />
        </mxCell>
        <mxCell id="4KrqfMs0hCerzIHVJyh5-22" value="Spiral Abyss" style="ellipse;whiteSpace=wrap;html=1;rounded=1;" vertex="1" parent="1">
          <mxGeometry x="440" y="440" width="80" height="40" as="geometry" />
        </mxCell>
        <mxCell id="4KrqfMs0hCerzIHVJyh5-23" value="Select preferences" style="ellipse;whiteSpace=wrap;html=1;rounded=1;" vertex="1" parent="1">
          <mxGeometry x="590" y="410" width="80" height="40" as="geometry" />
        </mxCell>
        <mxCell id="4KrqfMs0hCerzIHVJyh5-24" value="Generate team" style="ellipse;whiteSpace=wrap;html=1;rounded=1;" vertex="1" parent="1">
          <mxGeometry x="770" y="360" width="100" height="40" as="geometry" />
        </mxCell>
        <mxCell id="4KrqfMs0hCerzIHVJyh5-25" value="Display result" style="ellipse;whiteSpace=wrap;html=1;rounded=1;" vertex="1" parent="1">
          <mxGeometry x="770" y="440" width="100" height="40" as="geometry" />
        </mxCell>
        <mxCell id="4KrqfMs0hCerzIHVJyh5-26" value="include" style="endArrow=open;endSize=12;dashed=1;html=1;rounded=1;exitX=0.5;exitY=1;exitDx=0;exitDy=0;entryX=0.5;entryY=0;entryDx=0;entryDy=0;" edge="1" parent="1" source="4KrqfMs0hCerzIHVJyh5-13" target="4KrqfMs0hCerzIHVJyh5-20">
          <mxGeometry width="160" relative="1" as="geometry">
            <mxPoint x="690" y="325" as="sourcePoint" />
            <mxPoint x="378" y="366" as="targetPoint" />
          </mxGeometry>
        </mxCell>
        <mxCell id="4KrqfMs0hCerzIHVJyh5-27" value="include" style="endArrow=open;endSize=12;dashed=1;html=1;rounded=1;exitX=1;exitY=0.5;exitDx=0;exitDy=0;entryX=0;entryY=0.5;entryDx=0;entryDy=0;" edge="1" parent="1" source="4KrqfMs0hCerzIHVJyh5-20" target="4KrqfMs0hCerzIHVJyh5-21">
          <mxGeometry width="160" relative="1" as="geometry">
            <mxPoint x="340" y="390" as="sourcePoint" />
            <mxPoint x="340" y="410" as="targetPoint" />
          </mxGeometry>
        </mxCell>
        <mxCell id="4KrqfMs0hCerzIHVJyh5-31" value="include" style="endArrow=open;endSize=12;dashed=1;html=1;rounded=1;exitX=1;exitY=0.5;exitDx=0;exitDy=0;entryX=0;entryY=0.5;entryDx=0;entryDy=0;" edge="1" parent="1" source="4KrqfMs0hCerzIHVJyh5-20" target="4KrqfMs0hCerzIHVJyh5-22">
          <mxGeometry width="160" relative="1" as="geometry">
            <mxPoint x="380" y="430" as="sourcePoint" />
            <mxPoint x="450" y="430" as="targetPoint" />
          </mxGeometry>
        </mxCell>
        <mxCell id="4KrqfMs0hCerzIHVJyh5-32" value="include" style="endArrow=open;endSize=12;dashed=1;html=1;rounded=1;exitX=1;exitY=0.5;exitDx=0;exitDy=0;entryX=0;entryY=0.5;entryDx=0;entryDy=0;" edge="1" parent="1" source="4KrqfMs0hCerzIHVJyh5-21" target="4KrqfMs0hCerzIHVJyh5-23">
          <mxGeometry width="160" relative="1" as="geometry">
            <mxPoint x="380" y="430" as="sourcePoint" />
            <mxPoint x="450" y="410" as="targetPoint" />
          </mxGeometry>
        </mxCell>
        <mxCell id="4KrqfMs0hCerzIHVJyh5-33" value="include" style="endArrow=open;endSize=12;dashed=1;html=1;rounded=1;exitX=1;exitY=0.5;exitDx=0;exitDy=0;" edge="1" parent="1" source="4KrqfMs0hCerzIHVJyh5-22">
          <mxGeometry width="160" relative="1" as="geometry">
            <mxPoint x="530" y="410" as="sourcePoint" />
            <mxPoint x="590" y="430" as="targetPoint" />
          </mxGeometry>
        </mxCell>
        <mxCell id="4KrqfMs0hCerzIHVJyh5-34" value="include" style="endArrow=open;endSize=12;dashed=1;html=1;rounded=1;exitX=1;exitY=0.5;exitDx=0;exitDy=0;entryX=0;entryY=0.5;entryDx=0;entryDy=0;" edge="1" parent="1" source="4KrqfMs0hCerzIHVJyh5-23" target="4KrqfMs0hCerzIHVJyh5-24">
          <mxGeometry width="160" relative="1" as="geometry">
            <mxPoint x="530" y="470" as="sourcePoint" />
            <mxPoint x="600" y="440" as="targetPoint" />
          </mxGeometry>
        </mxCell>
        <mxCell id="4KrqfMs0hCerzIHVJyh5-35" value="include" style="endArrow=open;endSize=12;dashed=1;html=1;rounded=1;exitX=0.5;exitY=1;exitDx=0;exitDy=0;entryX=0.5;entryY=0;entryDx=0;entryDy=0;" edge="1" parent="1" source="4KrqfMs0hCerzIHVJyh5-24" target="4KrqfMs0hCerzIHVJyh5-25">
          <mxGeometry width="160" relative="1" as="geometry">
            <mxPoint x="680" y="440" as="sourcePoint" />
            <mxPoint x="780" y="400" as="targetPoint" />
          </mxGeometry>
        </mxCell>
        <mxCell id="4KrqfMs0hCerzIHVJyh5-37" value="Character information" style="ellipse;whiteSpace=wrap;html=1;rounded=1;" vertex="1" parent="1">
          <mxGeometry x="260" y="520" width="90" height="40" as="geometry" />
        </mxCell>
        <mxCell id="4KrqfMs0hCerzIHVJyh5-38" value="Filter character" style="ellipse;whiteSpace=wrap;html=1;rounded=1;" vertex="1" parent="1">
          <mxGeometry x="440" y="520" width="90" height="40" as="geometry" />
        </mxCell>
        <mxCell id="4KrqfMs0hCerzIHVJyh5-39" value="Filter based on user input" style="ellipse;whiteSpace=wrap;html=1;rounded=1;" vertex="1" parent="1">
          <mxGeometry x="770" y="510" width="100" height="50" as="geometry" />
        </mxCell>
        <mxCell id="4KrqfMs0hCerzIHVJyh5-40" value="Character details" style="ellipse;whiteSpace=wrap;html=1;rounded=1;" vertex="1" parent="1">
          <mxGeometry x="440" y="570" width="90" height="40" as="geometry" />
        </mxCell>
        <mxCell id="4KrqfMs0hCerzIHVJyh5-41" value="Show character details" style="ellipse;whiteSpace=wrap;html=1;rounded=1;" vertex="1" parent="1">
          <mxGeometry x="750" y="570" width="115" height="40" as="geometry" />
        </mxCell>
        <mxCell id="4KrqfMs0hCerzIHVJyh5-42" value="Play character music" style="ellipse;whiteSpace=wrap;html=1;rounded=1;" vertex="1" parent="1">
          <mxGeometry x="750" y="620" width="100" height="40" as="geometry" />
        </mxCell>
        <mxCell id="4KrqfMs0hCerzIHVJyh5-43" value="include" style="endArrow=open;endSize=12;dashed=1;html=1;rounded=1;exitX=0;exitY=0.5;exitDx=0;exitDy=0;entryX=0.022;entryY=0.7;entryDx=0;entryDy=0;entryPerimeter=0;edgeStyle=orthogonalEdgeStyle;" edge="1" parent="1" source="4KrqfMs0hCerzIHVJyh5-13" target="4KrqfMs0hCerzIHVJyh5-37">
          <mxGeometry x="0.463" y="-2" width="160" relative="1" as="geometry">
            <mxPoint x="220" y="460" as="sourcePoint" />
            <mxPoint x="290" y="500" as="targetPoint" />
            <Array as="points">
              <mxPoint x="290" y="420" />
              <mxPoint x="262" y="420" />
            </Array>
            <mxPoint as="offset" />
          </mxGeometry>
        </mxCell>
        <mxCell id="4KrqfMs0hCerzIHVJyh5-44" value="include" style="endArrow=open;endSize=12;dashed=1;html=1;rounded=1;exitX=1;exitY=0.5;exitDx=0;exitDy=0;entryX=0;entryY=0.5;entryDx=0;entryDy=0;" edge="1" parent="1" source="4KrqfMs0hCerzIHVJyh5-37" target="4KrqfMs0hCerzIHVJyh5-38">
          <mxGeometry width="160" relative="1" as="geometry">
            <mxPoint x="380" y="430" as="sourcePoint" />
            <mxPoint x="450" y="470" as="targetPoint" />
          </mxGeometry>
        </mxCell>
        <mxCell id="4KrqfMs0hCerzIHVJyh5-45" value="include" style="endArrow=open;endSize=12;dashed=1;html=1;rounded=1;exitX=1;exitY=0.5;exitDx=0;exitDy=0;entryX=0;entryY=0.5;entryDx=0;entryDy=0;" edge="1" parent="1" source="4KrqfMs0hCerzIHVJyh5-37" target="4KrqfMs0hCerzIHVJyh5-40">
          <mxGeometry width="160" relative="1" as="geometry">
            <mxPoint x="360" y="550" as="sourcePoint" />
            <mxPoint x="450" y="550" as="targetPoint" />
          </mxGeometry>
        </mxCell>
        <mxCell id="4KrqfMs0hCerzIHVJyh5-46" value="include" style="endArrow=open;endSize=12;dashed=1;html=1;rounded=1;exitX=1;exitY=0.5;exitDx=0;exitDy=0;" edge="1" parent="1" source="4KrqfMs0hCerzIHVJyh5-38" target="4KrqfMs0hCerzIHVJyh5-39">
          <mxGeometry width="160" relative="1" as="geometry">
            <mxPoint x="360" y="550" as="sourcePoint" />
            <mxPoint x="450" y="600" as="targetPoint" />
          </mxGeometry>
        </mxCell>
        <mxCell id="4KrqfMs0hCerzIHVJyh5-47" value="include" style="endArrow=open;endSize=12;dashed=1;html=1;rounded=1;exitX=1;exitY=0.5;exitDx=0;exitDy=0;" edge="1" parent="1" source="4KrqfMs0hCerzIHVJyh5-40" target="4KrqfMs0hCerzIHVJyh5-41">
          <mxGeometry width="160" relative="1" as="geometry">
            <mxPoint x="540" y="550" as="sourcePoint" />
            <mxPoint x="780" y="546" as="targetPoint" />
          </mxGeometry>
        </mxCell>
        <mxCell id="4KrqfMs0hCerzIHVJyh5-48" value="include" style="endArrow=open;endSize=12;dashed=1;html=1;rounded=1;entryX=0;entryY=0.5;entryDx=0;entryDy=0;" edge="1" parent="1" target="4KrqfMs0hCerzIHVJyh5-42">
          <mxGeometry width="160" relative="1" as="geometry">
            <mxPoint x="530" y="590" as="sourcePoint" />
            <mxPoint x="760" y="600" as="targetPoint" />
          </mxGeometry>
        </mxCell>
        <mxCell id="4KrqfMs0hCerzIHVJyh5-49" value="Settings" style="ellipse;whiteSpace=wrap;html=1;rounded=1;" vertex="1" parent="1">
          <mxGeometry x="200" y="680" width="90" height="40" as="geometry" />
        </mxCell>
        <mxCell id="4KrqfMs0hCerzIHVJyh5-50" value="include" style="endArrow=open;endSize=12;dashed=1;html=1;rounded=1;entryX=0;entryY=0.5;entryDx=0;entryDy=0;edgeStyle=orthogonalEdgeStyle;" edge="1" parent="1" target="4KrqfMs0hCerzIHVJyh5-49">
          <mxGeometry width="160" relative="1" as="geometry">
            <mxPoint x="290" y="360" as="sourcePoint" />
            <mxPoint x="272" y="558" as="targetPoint" />
            <Array as="points">
              <mxPoint x="290" y="420" />
              <mxPoint x="190" y="420" />
              <mxPoint x="190" y="700" />
            </Array>
          </mxGeometry>
        </mxCell>
        <mxCell id="4KrqfMs0hCerzIHVJyh5-51" value="include" style="endArrow=open;endSize=12;dashed=1;html=1;rounded=1;entryX=0;entryY=0;entryDx=0;entryDy=0;exitX=0;exitY=0.5;exitDx=0;exitDy=0;edgeStyle=orthogonalEdgeStyle;" edge="1" parent="1" source="4KrqfMs0hCerzIHVJyh5-20" target="4KrqfMs0hCerzIHVJyh5-49">
          <mxGeometry width="160" relative="1" as="geometry">
            <mxPoint x="290" y="420" as="sourcePoint" />
            <mxPoint x="190" y="690" as="targetPoint" />
            <Array as="points">
              <mxPoint x="300" y="450" />
              <mxPoint x="213" y="450" />
            </Array>
          </mxGeometry>
        </mxCell>
        <mxCell id="4KrqfMs0hCerzIHVJyh5-52" value="include" style="endArrow=open;endSize=12;dashed=1;html=1;rounded=1;exitX=0.5;exitY=1;exitDx=0;exitDy=0;entryX=0.5;entryY=0;entryDx=0;entryDy=0;" edge="1" parent="1" source="4KrqfMs0hCerzIHVJyh5-37" target="4KrqfMs0hCerzIHVJyh5-49">
          <mxGeometry width="160" relative="1" as="geometry">
            <mxPoint x="360" y="550" as="sourcePoint" />
            <mxPoint x="450" y="550" as="targetPoint" />
          </mxGeometry>
        </mxCell>
        <mxCell id="4KrqfMs0hCerzIHVJyh5-53" value="Set new information" style="ellipse;whiteSpace=wrap;html=1;rounded=1;" vertex="1" parent="1">
          <mxGeometry x="414" y="650" width="90" height="40" as="geometry" />
        </mxCell>
        <mxCell id="4KrqfMs0hCerzIHVJyh5-54" value="Set profile picture" style="ellipse;whiteSpace=wrap;html=1;rounded=1;" vertex="1" parent="1">
          <mxGeometry x="410" y="750" width="90" height="40" as="geometry" />
        </mxCell>
        <mxCell id="4KrqfMs0hCerzIHVJyh5-55" value="Set background music" style="ellipse;whiteSpace=wrap;html=1;rounded=1;" vertex="1" parent="1">
          <mxGeometry x="395" y="810" width="120" height="40" as="geometry" />
        </mxCell>
        <mxCell id="4KrqfMs0hCerzIHVJyh5-56" value="include" style="endArrow=open;endSize=12;dashed=1;html=1;rounded=1;exitX=1;exitY=0.5;exitDx=0;exitDy=0;" edge="1" parent="1" source="4KrqfMs0hCerzIHVJyh5-49" target="4KrqfMs0hCerzIHVJyh5-53">
          <mxGeometry width="160" relative="1" as="geometry">
            <mxPoint x="315" y="570" as="sourcePoint" />
            <mxPoint x="255" y="690" as="targetPoint" />
          </mxGeometry>
        </mxCell>
        <mxCell id="4KrqfMs0hCerzIHVJyh5-57" value="include" style="endArrow=open;endSize=12;dashed=1;html=1;rounded=1;exitX=1;exitY=0.5;exitDx=0;exitDy=0;entryX=0;entryY=0.5;entryDx=0;entryDy=0;" edge="1" parent="1" source="4KrqfMs0hCerzIHVJyh5-49" target="4KrqfMs0hCerzIHVJyh5-54">
          <mxGeometry width="160" relative="1" as="geometry">
            <mxPoint x="300" y="710" as="sourcePoint" />
            <mxPoint x="390" y="710" as="targetPoint" />
          </mxGeometry>
        </mxCell>
        <mxCell id="4KrqfMs0hCerzIHVJyh5-58" value="Update character list" style="ellipse;whiteSpace=wrap;html=1;rounded=1;" vertex="1" parent="1">
          <mxGeometry x="410" y="700" width="90" height="40" as="geometry" />
        </mxCell>
        <mxCell id="4KrqfMs0hCerzIHVJyh5-59" value="include" style="endArrow=open;endSize=12;dashed=1;html=1;rounded=1;exitX=1;exitY=0.5;exitDx=0;exitDy=0;entryX=0;entryY=0.5;entryDx=0;entryDy=0;" edge="1" parent="1" source="4KrqfMs0hCerzIHVJyh5-49" target="4KrqfMs0hCerzIHVJyh5-58">
          <mxGeometry width="160" relative="1" as="geometry">
            <mxPoint x="300" y="710" as="sourcePoint" />
            <mxPoint x="395" y="689" as="targetPoint" />
          </mxGeometry>
        </mxCell>
        <mxCell id="4KrqfMs0hCerzIHVJyh5-60" value="include" style="endArrow=open;endSize=12;dashed=1;html=1;rounded=1;exitX=1;exitY=0.5;exitDx=0;exitDy=0;entryX=0;entryY=0.5;entryDx=0;entryDy=0;" edge="1" parent="1" source="4KrqfMs0hCerzIHVJyh5-49" target="4KrqfMs0hCerzIHVJyh5-55">
          <mxGeometry width="160" relative="1" as="geometry">
            <mxPoint x="300" y="710" as="sourcePoint" />
            <mxPoint x="390" y="730" as="targetPoint" />
          </mxGeometry>
        </mxCell>
        <mxCell id="4KrqfMs0hCerzIHVJyh5-61" value="Update database" style="ellipse;whiteSpace=wrap;html=1;rounded=1;" vertex="1" parent="1">
          <mxGeometry x="757.5" y="720" width="100" height="40" as="geometry" />
        </mxCell>
        <mxCell id="4KrqfMs0hCerzIHVJyh5-62" value="include" style="endArrow=open;endSize=12;dashed=1;html=1;rounded=1;exitX=1;exitY=0.5;exitDx=0;exitDy=0;entryX=0;entryY=0.5;entryDx=0;entryDy=0;" edge="1" parent="1" source="4KrqfMs0hCerzIHVJyh5-53" target="4KrqfMs0hCerzIHVJyh5-61">
          <mxGeometry width="160" relative="1" as="geometry">
            <mxPoint x="520" y="730.5" as="sourcePoint" />
            <mxPoint x="615" y="709.5" as="targetPoint" />
          </mxGeometry>
        </mxCell>
        <mxCell id="4KrqfMs0hCerzIHVJyh5-63" value="include" style="endArrow=open;endSize=12;dashed=1;html=1;rounded=1;exitX=1;exitY=0.5;exitDx=0;exitDy=0;entryX=0;entryY=0.5;entryDx=0;entryDy=0;" edge="1" parent="1" source="4KrqfMs0hCerzIHVJyh5-58" target="4KrqfMs0hCerzIHVJyh5-61">
          <mxGeometry width="160" relative="1" as="geometry">
            <mxPoint x="480" y="680" as="sourcePoint" />
            <mxPoint x="755" y="750" as="targetPoint" />
          </mxGeometry>
        </mxCell>
        <mxCell id="4KrqfMs0hCerzIHVJyh5-64" value="include" style="endArrow=open;endSize=12;dashed=1;html=1;rounded=1;exitX=1;exitY=0.5;exitDx=0;exitDy=0;" edge="1" parent="1" source="4KrqfMs0hCerzIHVJyh5-54" target="4KrqfMs0hCerzIHVJyh5-61">
          <mxGeometry width="160" relative="1" as="geometry">
            <mxPoint x="480" y="730" as="sourcePoint" />
            <mxPoint x="755" y="750" as="targetPoint" />
          </mxGeometry>
        </mxCell>
        <mxCell id="4KrqfMs0hCerzIHVJyh5-65" value="include" style="endArrow=open;endSize=12;dashed=1;html=1;rounded=1;exitX=1;exitY=0.5;exitDx=0;exitDy=0;entryX=0.025;entryY=0.738;entryDx=0;entryDy=0;entryPerimeter=0;" edge="1" parent="1" source="4KrqfMs0hCerzIHVJyh5-55" target="4KrqfMs0hCerzIHVJyh5-61">
          <mxGeometry width="160" relative="1" as="geometry">
            <mxPoint x="480" y="780" as="sourcePoint" />
            <mxPoint x="756" y="754" as="targetPoint" />
          </mxGeometry>
        </mxCell>
        <mxCell id="4KrqfMs0hCerzIHVJyh5-66" value="Use Case Diagram" style="text;strokeColor=none;align=center;fillColor=none;html=1;verticalAlign=middle;whiteSpace=wrap;rounded=0;fontSize=37;fontStyle=1" vertex="1" parent="1">
          <mxGeometry x="352.5" y="30" width="355" height="30" as="geometry" />
        </mxCell>
        <mxCell id="4KrqfMs0hCerzIHVJyh5-67" value="Tactic Akademiya" style="text;strokeColor=none;align=center;fillColor=none;html=1;verticalAlign=middle;whiteSpace=wrap;rounded=0;fontSize=28;" vertex="1" parent="1">
          <mxGeometry x="420" y="70" width="220" height="30" as="geometry" />
        </mxCell>
        <mxCell id="4KrqfMs0hCerzIHVJyh5-69" value="" style="endArrow=none;html=1;rounded=0;exitX=0.5;exitY=0.5;exitDx=0;exitDy=0;exitPerimeter=0;entryX=0;entryY=0.5;entryDx=0;entryDy=0;" edge="1" parent="1" source="Mtp3X7L3HIerDT1P-2zb-2" target="Mtp3X7L3HIerDT1P-2zb-9">
          <mxGeometry relative="1" as="geometry">
            <mxPoint x="70" y="349.5" as="sourcePoint" />
            <mxPoint x="230" y="349.5" as="targetPoint" />
          </mxGeometry>
        </mxCell>
        <mxCell id="4KrqfMs0hCerzIHVJyh5-70" value="" style="endArrow=none;html=1;rounded=0;exitX=1;exitY=0.5;exitDx=0;exitDy=0;entryX=0.5;entryY=0.5;entryDx=0;entryDy=0;entryPerimeter=0;" edge="1" parent="1" source="4KrqfMs0hCerzIHVJyh5-6" target="Mtp3X7L3HIerDT1P-2zb-3">
          <mxGeometry relative="1" as="geometry">
            <mxPoint x="840" y="470" as="sourcePoint" />
            <mxPoint x="1000" y="470" as="targetPoint" />
          </mxGeometry>
        </mxCell>
        <mxCell id="4KrqfMs0hCerzIHVJyh5-71" value="" style="endArrow=none;html=1;rounded=0;exitX=1.022;exitY=0.713;exitDx=0;exitDy=0;exitPerimeter=0;entryX=0.5;entryY=0.5;entryDx=0;entryDy=0;entryPerimeter=0;" edge="1" parent="1" source="4KrqfMs0hCerzIHVJyh5-10" target="Mtp3X7L3HIerDT1P-2zb-3">
          <mxGeometry relative="1" as="geometry">
            <mxPoint x="840" y="370" as="sourcePoint" />
            <mxPoint x="1000" y="370" as="targetPoint" />
          </mxGeometry>
        </mxCell>
        <mxCell id="4KrqfMs0hCerzIHVJyh5-72" value="" style="endArrow=none;html=1;rounded=0;exitX=1;exitY=0.5;exitDx=0;exitDy=0;entryX=0.5;entryY=0.5;entryDx=0;entryDy=0;entryPerimeter=0;" edge="1" parent="1" source="4KrqfMs0hCerzIHVJyh5-24" target="Mtp3X7L3HIerDT1P-2zb-3">
          <mxGeometry relative="1" as="geometry">
            <mxPoint x="840" y="470" as="sourcePoint" />
            <mxPoint x="1000" y="470" as="targetPoint" />
          </mxGeometry>
        </mxCell>
        <mxCell id="4KrqfMs0hCerzIHVJyh5-73" value="" style="endArrow=none;html=1;rounded=0;exitX=1;exitY=0.5;exitDx=0;exitDy=0;entryX=0.5;entryY=0.5;entryDx=0;entryDy=0;entryPerimeter=0;" edge="1" parent="1" source="4KrqfMs0hCerzIHVJyh5-39" target="Mtp3X7L3HIerDT1P-2zb-3">
          <mxGeometry relative="1" as="geometry">
            <mxPoint x="840" y="470" as="sourcePoint" />
            <mxPoint x="1000" y="470" as="targetPoint" />
          </mxGeometry>
        </mxCell>
        <mxCell id="4KrqfMs0hCerzIHVJyh5-74" value="" style="endArrow=none;html=1;rounded=0;exitX=1;exitY=0.5;exitDx=0;exitDy=0;entryX=0.5;entryY=0.5;entryDx=0;entryDy=0;entryPerimeter=0;" edge="1" parent="1" source="4KrqfMs0hCerzIHVJyh5-41" target="Mtp3X7L3HIerDT1P-2zb-3">
          <mxGeometry relative="1" as="geometry">
            <mxPoint x="880" y="545" as="sourcePoint" />
            <mxPoint x="1110" y="405" as="targetPoint" />
          </mxGeometry>
        </mxCell>
        <mxCell id="4KrqfMs0hCerzIHVJyh5-75" value="" style="endArrow=none;html=1;rounded=0;exitX=0.975;exitY=0.7;exitDx=0;exitDy=0;entryX=0.5;entryY=0.5;entryDx=0;entryDy=0;entryPerimeter=0;exitPerimeter=0;" edge="1" parent="1" source="4KrqfMs0hCerzIHVJyh5-42" target="Mtp3X7L3HIerDT1P-2zb-3">
          <mxGeometry relative="1" as="geometry">
            <mxPoint x="875" y="600" as="sourcePoint" />
            <mxPoint x="1110" y="405" as="targetPoint" />
          </mxGeometry>
        </mxCell>
        <mxCell id="4KrqfMs0hCerzIHVJyh5-76" value="" style="endArrow=none;html=1;rounded=0;exitX=1;exitY=0.5;exitDx=0;exitDy=0;entryX=0.5;entryY=0.5;entryDx=0;entryDy=0;entryPerimeter=0;" edge="1" parent="1" source="4KrqfMs0hCerzIHVJyh5-61" target="Mtp3X7L3HIerDT1P-2zb-3">
          <mxGeometry relative="1" as="geometry">
            <mxPoint x="858" y="658" as="sourcePoint" />
            <mxPoint x="1110" y="405" as="targetPoint" />
          </mxGeometry>
        </mxCell>
      </root>
    </mxGraphModel>
  </diagram>
</mxfile>
